<mxfile host="app.diagrams.net" modified="2021-04-19T03:07:04.564Z" agent="5.0 (Windows NT 10.0; Win64; x64) AppleWebKit/537.36 (KHTML, like Gecko) Chrome/89.0.4389.128 Safari/537.36" etag="7SEWPhpO7ZswCyWxOmEi" version="14.4.3" type="github">
  <diagram name="Page-1" id="10a91c8b-09ff-31b1-d368-03940ed4cc9e">
    <mxGraphModel dx="1142" dy="488" grid="1" gridSize="10" guides="1" tooltips="1" connect="1" arrows="1" fold="1" page="1" pageScale="1" pageWidth="1100" pageHeight="850" background="#ffffff" math="0" shadow="0">
      <root>
        <mxCell id="0" />
        <mxCell id="1" parent="0" />
        <mxCell id="62893188c0fa7362-1" value="Is your data structured and unlikely to need a flexible schema?" style="whiteSpace=wrap;html=1;rounded=1;shadow=1;labelBackgroundColor=none;strokeWidth=1;fontFamily=Verdana;fontSize=12;align=center;" parent="1" vertex="1">
          <mxGeometry x="610" y="50" width="120" height="60" as="geometry" />
        </mxCell>
        <mxCell id="62893188c0fa7362-2" value="&lt;span&gt;Do you anticipate a finite number of rows of data?&lt;/span&gt;" style="whiteSpace=wrap;html=1;rounded=1;shadow=1;labelBackgroundColor=none;strokeWidth=1;fontFamily=Verdana;fontSize=12;align=center;" parent="1" vertex="1">
          <mxGeometry x="430" y="170" width="120" height="60" as="geometry" />
        </mxCell>
        <mxCell id="62893188c0fa7362-3" value="&lt;span&gt;Is 100% Data Integrity essential?&lt;/span&gt;" style="whiteSpace=wrap;html=1;rounded=1;shadow=1;labelBackgroundColor=none;strokeWidth=1;fontFamily=Verdana;fontSize=12;align=center;" parent="1" vertex="1">
          <mxGeometry x="780" y="170" width="120" height="60" as="geometry" />
        </mxCell>
        <mxCell id="62893188c0fa7362-4" value="No" style="rounded=0;html=1;labelBackgroundColor=none;startArrow=none;startFill=0;startSize=5;endArrow=none;endFill=0;endSize=5;jettySize=auto;orthogonalLoop=1;strokeWidth=1;fontFamily=Verdana;fontSize=12" parent="1" source="62893188c0fa7362-1" target="62893188c0fa7362-3" edge="1">
          <mxGeometry x="-0.3002" y="13" relative="1" as="geometry">
            <mxPoint as="offset" />
          </mxGeometry>
        </mxCell>
        <mxCell id="62893188c0fa7362-5" value="Yes" style="rounded=0;html=1;labelBackgroundColor=none;startArrow=none;startFill=0;startSize=5;endArrow=none;endFill=0;endSize=5;jettySize=auto;orthogonalLoop=1;strokeWidth=1;fontFamily=Verdana;fontSize=12" parent="1" source="62893188c0fa7362-1" target="62893188c0fa7362-2" edge="1">
          <mxGeometry x="-0.359" y="-11" relative="1" as="geometry">
            <mxPoint as="offset" />
          </mxGeometry>
        </mxCell>
        <mxCell id="62893188c0fa7362-9" value="&lt;span&gt;Condition&lt;/span&gt;" style="whiteSpace=wrap;html=1;rounded=1;shadow=1;labelBackgroundColor=none;strokeWidth=1;fontFamily=Verdana;fontSize=12;align=center;" parent="1" vertex="1">
          <mxGeometry x="540" y="280" width="120" height="60" as="geometry" />
        </mxCell>
        <mxCell id="62893188c0fa7362-10" value="&lt;span&gt;SQL&lt;/span&gt;" style="whiteSpace=wrap;html=1;rounded=0;shadow=1;labelBackgroundColor=none;strokeWidth=2;fontFamily=Verdana;fontSize=12;align=center;" parent="1" vertex="1">
          <mxGeometry x="690" y="280" width="120" height="60" as="geometry" />
        </mxCell>
        <mxCell id="62893188c0fa7362-11" value="&lt;span&gt;Action&lt;/span&gt;" style="whiteSpace=wrap;html=1;rounded=0;shadow=1;labelBackgroundColor=none;strokeWidth=2;fontFamily=Verdana;fontSize=12;align=center;" parent="1" vertex="1">
          <mxGeometry x="880" y="280" width="120" height="60" as="geometry" />
        </mxCell>
        <mxCell id="62893188c0fa7362-12" value="&lt;span&gt;Condition&lt;/span&gt;" style="whiteSpace=wrap;html=1;rounded=1;shadow=1;labelBackgroundColor=none;strokeWidth=1;fontFamily=Verdana;fontSize=12;align=center;" parent="1" vertex="1">
          <mxGeometry x="160" y="560" width="120" height="60" as="geometry" />
        </mxCell>
        <mxCell id="62893188c0fa7362-13" value="&lt;span&gt;Condition&lt;/span&gt;" style="whiteSpace=wrap;html=1;rounded=1;shadow=1;labelBackgroundColor=none;strokeWidth=1;fontFamily=Verdana;fontSize=12;align=center;" parent="1" vertex="1">
          <mxGeometry x="490" y="560" width="120" height="60" as="geometry" />
        </mxCell>
        <mxCell id="62893188c0fa7362-14" value="Yes" style="rounded=0;html=1;labelBackgroundColor=none;startArrow=none;startFill=0;startSize=5;endArrow=none;endFill=0;endSize=5;jettySize=auto;orthogonalLoop=1;strokeWidth=1;fontFamily=Verdana;fontSize=12;" parent="1" source="62893188c0fa7362-2" edge="1">
          <mxGeometry x="-0.2" y="-14" relative="1" as="geometry">
            <mxPoint as="offset" />
            <mxPoint x="400" y="280" as="targetPoint" />
          </mxGeometry>
        </mxCell>
        <mxCell id="62893188c0fa7362-15" value="No" style="rounded=0;html=1;labelBackgroundColor=none;startArrow=none;startFill=0;startSize=5;endArrow=none;endFill=0;endSize=5;jettySize=auto;orthogonalLoop=1;strokeWidth=1;fontFamily=Verdana;fontSize=12" parent="1" source="62893188c0fa7362-2" target="62893188c0fa7362-9" edge="1">
          <mxGeometry x="-0.2" y="14" relative="1" as="geometry">
            <mxPoint as="offset" />
          </mxGeometry>
        </mxCell>
        <mxCell id="62893188c0fa7362-16" value="Yes" style="rounded=0;html=1;labelBackgroundColor=none;startArrow=none;startFill=0;startSize=5;endArrow=none;endFill=0;endSize=5;jettySize=auto;orthogonalLoop=1;strokeWidth=1;fontFamily=Verdana;fontSize=12;entryX=1;entryY=0.5;entryDx=0;entryDy=0;" parent="1" source="62893188c0fa7362-3" target="62893188c0fa7362-2" edge="1">
          <mxGeometry x="-0.2174" y="-20" relative="1" as="geometry">
            <mxPoint x="-1" as="offset" />
            <Array as="points">
              <mxPoint x="700" y="200" />
            </Array>
          </mxGeometry>
        </mxCell>
        <mxCell id="62893188c0fa7362-17" value="No" style="rounded=0;html=1;labelBackgroundColor=none;startArrow=none;startFill=0;startSize=5;endArrow=none;endFill=0;endSize=5;jettySize=auto;orthogonalLoop=1;strokeWidth=1;fontFamily=Verdana;fontSize=12" parent="1" source="62893188c0fa7362-3" target="62893188c0fa7362-11" edge="1">
          <mxGeometry x="-0.1294" y="17" relative="1" as="geometry">
            <mxPoint as="offset" />
          </mxGeometry>
        </mxCell>
        <mxCell id="62893188c0fa7362-20" value="Action" style="whiteSpace=wrap;html=1;rounded=0;shadow=1;labelBackgroundColor=none;strokeWidth=2;fontFamily=Verdana;fontSize=12;align=center;" parent="1" vertex="1">
          <mxGeometry x="70" y="665" width="120" height="60" as="geometry" />
        </mxCell>
        <mxCell id="62893188c0fa7362-21" value="&lt;span&gt;Action&lt;/span&gt;" style="whiteSpace=wrap;html=1;rounded=0;shadow=1;labelBackgroundColor=none;strokeWidth=2;fontFamily=Verdana;fontSize=12;align=center;" parent="1" vertex="1">
          <mxGeometry x="250" y="665" width="120" height="60" as="geometry" />
        </mxCell>
        <mxCell id="62893188c0fa7362-22" value="&lt;span&gt;Action&lt;/span&gt;" style="whiteSpace=wrap;html=1;rounded=0;shadow=1;labelBackgroundColor=none;strokeWidth=2;fontFamily=Verdana;fontSize=12;align=center;" parent="1" vertex="1">
          <mxGeometry x="410" y="665" width="120" height="60" as="geometry" />
        </mxCell>
        <mxCell id="62893188c0fa7362-23" value="&lt;span&gt;Action&lt;/span&gt;" style="whiteSpace=wrap;html=1;rounded=0;shadow=1;labelBackgroundColor=none;strokeWidth=2;fontFamily=Verdana;fontSize=12;align=center;" parent="1" vertex="1">
          <mxGeometry x="580" y="665" width="120" height="60" as="geometry" />
        </mxCell>
        <mxCell id="62893188c0fa7362-24" value="Yes" style="rounded=0;html=1;labelBackgroundColor=none;startArrow=none;startFill=0;startSize=5;endArrow=none;endFill=0;endSize=5;jettySize=auto;orthogonalLoop=1;strokeWidth=1;fontFamily=Verdana;fontSize=12" parent="1" source="62893188c0fa7362-12" target="62893188c0fa7362-20" edge="1">
          <mxGeometry x="0.1373" y="-16" relative="1" as="geometry">
            <mxPoint as="offset" />
          </mxGeometry>
        </mxCell>
        <mxCell id="62893188c0fa7362-25" value="No" style="rounded=0;html=1;labelBackgroundColor=none;startArrow=none;startFill=0;startSize=5;endArrow=none;endFill=0;endSize=5;jettySize=auto;orthogonalLoop=1;strokeWidth=1;fontFamily=Verdana;fontSize=12" parent="1" source="62893188c0fa7362-12" target="62893188c0fa7362-21" edge="1">
          <mxGeometry x="0.1373" y="16" relative="1" as="geometry">
            <mxPoint as="offset" />
          </mxGeometry>
        </mxCell>
        <mxCell id="62893188c0fa7362-26" value="Yes" style="rounded=0;html=1;labelBackgroundColor=none;startArrow=none;startFill=0;startSize=5;endArrow=none;endFill=0;endSize=5;jettySize=auto;orthogonalLoop=1;strokeWidth=1;fontFamily=Verdana;fontSize=12" parent="1" source="62893188c0fa7362-13" target="62893188c0fa7362-22" edge="1">
          <mxGeometry x="0.0033" y="-12" relative="1" as="geometry">
            <mxPoint as="offset" />
          </mxGeometry>
        </mxCell>
        <mxCell id="62893188c0fa7362-27" value="No" style="rounded=0;html=1;labelBackgroundColor=none;startArrow=none;startFill=0;startSize=5;endArrow=none;endFill=0;endSize=5;jettySize=auto;orthogonalLoop=1;strokeWidth=1;fontFamily=Verdana;fontSize=12" parent="1" source="62893188c0fa7362-13" target="62893188c0fa7362-23" edge="1">
          <mxGeometry x="0.1373" y="16" relative="1" as="geometry">
            <mxPoint as="offset" />
          </mxGeometry>
        </mxCell>
        <mxCell id="VUbv5wMl-6L-SNe80weV-2" value="&lt;span&gt;Will your data be updated often?&lt;/span&gt;" style="whiteSpace=wrap;html=1;rounded=1;shadow=1;labelBackgroundColor=none;strokeWidth=1;fontFamily=Verdana;fontSize=12;align=center;" vertex="1" parent="1">
          <mxGeometry x="340" y="280" width="120" height="60" as="geometry" />
        </mxCell>
        <mxCell id="VUbv5wMl-6L-SNe80weV-3" value="Yes" style="rounded=0;html=1;labelBackgroundColor=none;startArrow=none;startFill=0;startSize=5;endArrow=none;endFill=0;endSize=5;jettySize=auto;orthogonalLoop=1;strokeWidth=1;fontFamily=Verdana;fontSize=12" edge="1" parent="1">
          <mxGeometry x="0.1373" y="-16" relative="1" as="geometry">
            <mxPoint as="offset" />
            <mxPoint x="374.28571428571445" y="340" as="sourcePoint" />
            <mxPoint x="335.7142857142858" y="385" as="targetPoint" />
          </mxGeometry>
        </mxCell>
        <mxCell id="VUbv5wMl-6L-SNe80weV-4" value="No" style="rounded=0;html=1;labelBackgroundColor=none;startArrow=none;startFill=0;startSize=5;endArrow=none;endFill=0;endSize=5;jettySize=auto;orthogonalLoop=1;strokeWidth=1;fontFamily=Verdana;fontSize=12" edge="1" parent="1">
          <mxGeometry x="0.1373" y="16" relative="1" as="geometry">
            <mxPoint as="offset" />
            <mxPoint x="425.7142857142858" y="340" as="sourcePoint" />
            <mxPoint x="464.28571428571445" y="385" as="targetPoint" />
          </mxGeometry>
        </mxCell>
        <mxCell id="VUbv5wMl-6L-SNe80weV-5" value="Transactional Database (RDBMS)" style="whiteSpace=wrap;html=1;rounded=0;shadow=1;labelBackgroundColor=none;strokeWidth=2;fontFamily=Verdana;fontSize=12;align=center;" vertex="1" parent="1">
          <mxGeometry x="280" y="380" width="120" height="60" as="geometry" />
        </mxCell>
        <mxCell id="VUbv5wMl-6L-SNe80weV-6" value="Will your data be frequently queried and analzed?" style="whiteSpace=wrap;html=1;rounded=1;shadow=1;labelBackgroundColor=none;strokeWidth=1;fontFamily=Verdana;fontSize=12;align=center;" vertex="1" parent="1">
          <mxGeometry x="420" y="380" width="120" height="60" as="geometry" />
        </mxCell>
        <mxCell id="VUbv5wMl-6L-SNe80weV-13" value="Yes" style="rounded=0;html=1;labelBackgroundColor=none;startArrow=none;startFill=0;startSize=5;endArrow=none;endFill=0;endSize=5;jettySize=auto;orthogonalLoop=1;strokeWidth=1;fontFamily=Verdana;fontSize=12" edge="1" parent="1">
          <mxGeometry x="0.1373" y="-16" relative="1" as="geometry">
            <mxPoint as="offset" />
            <mxPoint x="448.57571428571447" y="440" as="sourcePoint" />
            <mxPoint x="410.0042857142858" y="485" as="targetPoint" />
          </mxGeometry>
        </mxCell>
        <mxCell id="VUbv5wMl-6L-SNe80weV-14" value="No" style="rounded=0;html=1;labelBackgroundColor=none;startArrow=none;startFill=0;startSize=5;endArrow=none;endFill=0;endSize=5;jettySize=auto;orthogonalLoop=1;strokeWidth=1;fontFamily=Verdana;fontSize=12" edge="1" parent="1">
          <mxGeometry x="0.1373" y="16" relative="1" as="geometry">
            <mxPoint as="offset" />
            <mxPoint x="500.0042857142858" y="440" as="sourcePoint" />
            <mxPoint x="538.5757142857144" y="485" as="targetPoint" />
          </mxGeometry>
        </mxCell>
        <mxCell id="VUbv5wMl-6L-SNe80weV-15" value="Transactional Database (RDBMS)" style="whiteSpace=wrap;html=1;rounded=0;shadow=1;labelBackgroundColor=none;strokeWidth=2;fontFamily=Verdana;fontSize=12;align=center;" vertex="1" parent="1">
          <mxGeometry x="490" y="483" width="120" height="60" as="geometry" />
        </mxCell>
        <mxCell id="VUbv5wMl-6L-SNe80weV-9" value="Data Warehouse" style="whiteSpace=wrap;html=1;rounded=0;shadow=1;labelBackgroundColor=none;strokeWidth=2;fontFamily=Verdana;fontSize=12;align=center;" vertex="1" parent="1">
          <mxGeometry x="350" y="483" width="120" height="60" as="geometry" />
        </mxCell>
      </root>
    </mxGraphModel>
  </diagram>
</mxfile>
